<svg width="434" height="434" viewBox="0 0 434 434" fill="none" xmlns="http://www.w3.org/2000/svg">
<path d="M135.853 129.013C135.806 101.797 135.051 83.4519 155.399 61.4754C168.55 47.3019 186.856 39.0219 206.185 38.5044C225.325 37.9839 243.875 45.1749 257.66 58.4624C269.335 69.6694 278.635 87.0859 279.7 103.273C280.205 110.984 279.885 121.251 280.055 129.379C281.155 129.247 282.26 129.165 283.37 129.134C287.57 129.033 292.27 129.295 296.385 129.141C330.075 127.881 340.625 130.225 339.885 167.118C336.115 171.466 329.405 177.082 324.91 181.213L296.9 206.886C281.5 221.156 266 235.311 250.39 249.348C243.505 255.589 236.905 262.472 229.68 268.296C228.4 269.33 226.3 271.219 224.67 271.382C213.695 272.482 202.325 244.371 180.174 242.339C170.65 241.465 161.974 245.896 154.817 251.806C146.75 258.466 140.831 266.313 139.908 277.027C138.69 291.178 145.807 298.079 155.051 307.364C161.601 313.942 169.016 320.715 174.874 327.9L175.443 328.605L175.719 329.41C176.112 330.525 176.334 330.86 176.97 331.89C176.665 337.21 172.925 337.565 171.071 341.025C169.269 344.385 166.678 355.825 162.844 357.44C154.272 361.05 155.373 367.4 150.051 374.665C146.524 379.48 141.594 383.01 139.166 389.165C139.71 392.95 138.747 393.805 135.075 395.57C138.179 396.945 156.733 395.07 159.462 396.33L157.069 396.94C144.073 397.865 129.246 396.425 116.032 397.045C106.596 397.46 96.7273 396.59 87.3393 397.075C69.2093 398.015 52.4678 385.79 52.0163 366.805C51.8143 358.295 53.5383 348.405 54.5333 339.71L60.9298 285.452L71.5163 195.56L75.2713 162.258C76.7928 149.182 77.3108 132.221 93.5408 129.871C105.918 128.078 123.087 129.118 135.853 129.013ZM160.905 129.361C173.78 128.482 197.47 128.87 210.995 129.16C225.595 129.142 240.615 129.323 255.175 129.072C255.13 108.384 257.085 94.3474 241.12 77.4879C232.985 68.8969 219.85 63.2164 207.925 63.2184C193.334 64.4169 182.362 68.8964 172.693 80.2659C158.82 96.5779 160.656 109.647 160.905 129.361ZM149.112 184.06C155.883 183.537 160.957 177.636 160.458 170.863C159.96 164.09 154.077 158.995 147.301 159.47C140.493 159.947 135.367 165.866 135.868 172.673C136.37 179.481 142.306 184.585 149.112 184.06ZM270.575 183.675C275.665 182.377 279.365 177.978 279.765 172.74C280.06 168.847 278.485 165.045 275.52 162.505C272.555 159.964 268.56 158.989 264.755 159.879C258.125 161.432 254.035 168.098 255.65 174.715C257.27 181.333 263.975 185.358 270.575 183.675Z" fill="#195285"/>
<path d="M175.443 328.605C184.493 337.04 192.803 346.655 201.79 355.26C206.065 359.355 209.875 364.06 215.135 367.355C224.055 372.945 235.945 374.035 245.145 368.32C254.335 361.585 263.59 352.46 272.255 344.64L338.73 283.712C344 278.841 352.235 269.969 354.16 283.298C355.54 292.879 356.385 302.682 357.53 312.307L361.21 342.745C363.08 357.73 367.09 371.73 357.215 384.675C345.79 399.655 330.425 397.145 313.795 397.11L271.88 397.04L196.615 397.045C184.367 397.04 169.153 397.4 157.069 396.94L159.462 396.33C156.733 395.07 138.179 396.945 135.075 395.57C138.747 393.805 139.71 392.95 139.166 389.165C141.594 383.01 146.524 379.48 150.051 374.665C155.373 367.4 154.272 361.05 162.844 357.44C166.678 355.825 169.269 344.385 171.071 341.025C172.925 337.565 176.665 337.21 176.97 331.89C176.334 330.86 176.112 330.525 175.719 329.41L175.443 328.605Z" fill="#1692E6"/>
<path d="M360.81 188.575C378.795 187.078 389.88 203.377 377.735 217.796C373.425 222.91 365.035 229.638 359.94 234.34L323.415 268.179L267.245 320.505C260 327.26 252.73 334.07 245.48 340.765C240.83 345.05 237.09 349.005 230.44 349.15C223.82 349.3 217.005 341.865 212.85 337.52C203.445 327.665 193.561 318.211 184.356 308.261C177.056 300.729 156.607 285.094 163.183 273.625C174.069 254.637 185.375 265.007 196.08 276.017C203.045 283.186 221.28 302.031 229.12 305.148L229.81 305.414C234.245 302.308 251.455 285.564 255.81 281.467L313.65 228.103L337.925 205.48C344.555 199.328 352.06 190.851 360.81 188.575Z" fill="#E18039"/>
</svg>
