<svg width="725" height="725" viewBox="0 0 725 725" fill="none" xmlns="http://www.w3.org/2000/svg">
<path d="M274.995 181.013C274.948 153.797 274.193 135.452 294.541 113.475C307.692 99.3019 325.998 91.0219 345.327 90.5044C364.467 89.9839 383.017 97.1749 396.802 110.462C408.477 121.669 417.777 139.086 418.842 155.273C419.347 162.984 419.027 173.251 419.197 181.379C420.297 181.247 421.402 181.165 422.512 181.134C426.712 181.033 431.412 181.295 435.527 181.141C469.217 179.881 479.767 182.225 479.027 219.118C475.257 223.466 468.547 229.082 464.052 233.213L436.042 258.886C420.642 273.156 405.142 287.311 389.532 301.348C382.647 307.589 376.047 314.472 368.822 320.296C367.542 321.33 365.442 323.219 363.812 323.382C352.837 324.482 341.467 296.371 319.316 294.339C309.792 293.465 301.116 297.896 293.959 303.806C285.892 310.466 279.973 318.313 279.051 329.027C277.832 343.178 284.949 350.079 294.193 359.364C300.743 365.942 308.158 372.715 314.016 379.9L314.585 380.605L314.861 381.41C315.254 382.525 315.476 382.86 316.112 383.89C315.807 389.21 312.067 389.565 310.213 393.025C308.411 396.385 305.82 407.825 301.986 409.44C293.414 413.05 294.515 419.4 289.193 426.665C285.666 431.48 280.736 435.01 278.309 441.165C278.853 444.95 277.889 445.805 274.217 447.57C277.321 448.945 295.876 447.07 298.604 448.33L296.211 448.94C283.215 449.865 268.388 448.425 255.174 449.045C245.738 449.46 235.87 448.59 226.482 449.075C208.352 450.015 191.61 437.79 191.159 418.805C190.957 410.295 192.681 400.405 193.676 391.71L200.072 337.452L210.659 247.56L214.413 214.258C215.935 201.182 216.453 184.221 232.683 181.871C245.06 180.078 262.229 181.118 274.995 181.013ZM300.047 181.361C312.922 180.482 336.612 180.87 350.137 181.16C364.737 181.142 379.757 181.323 394.317 181.072C394.272 160.384 396.227 146.347 380.262 129.488C372.127 120.897 358.992 115.216 347.067 115.218C332.476 116.417 321.504 120.896 311.835 132.266C297.962 148.578 299.798 161.647 300.047 181.361ZM288.254 236.06C295.025 235.537 300.099 229.636 299.6 222.863C299.102 216.09 293.219 210.995 286.443 211.47C279.635 211.947 274.509 217.866 275.01 224.673C275.512 231.481 281.448 236.585 288.254 236.06ZM409.717 235.675C414.807 234.377 418.507 229.978 418.907 224.74C419.202 220.847 417.627 217.045 414.662 214.505C411.697 211.964 407.702 210.989 403.897 211.879C397.267 213.432 393.177 220.098 394.792 226.715C396.412 233.333 403.117 237.358 409.717 235.675Z" fill="#195285"/>
<path d="M314.586 380.605C323.635 389.04 331.945 398.655 340.932 407.26C345.207 411.355 349.017 416.06 354.277 419.355C363.197 424.945 375.087 426.035 384.287 420.32C393.477 413.585 402.732 404.46 411.397 396.64L477.872 335.712C483.142 330.841 491.377 321.969 493.302 335.298C494.682 344.879 495.527 354.682 496.672 364.307L500.352 394.745C502.222 409.73 506.232 423.73 496.357 436.675C484.932 451.655 469.567 449.145 452.937 449.11L411.022 449.04L335.757 449.045C323.509 449.04 308.295 449.4 296.211 448.94L298.604 448.33C295.876 447.07 277.322 448.945 274.218 447.57C277.89 445.805 278.853 444.95 278.309 441.165C280.736 435.01 285.666 431.48 289.194 426.665C294.515 419.4 293.414 413.05 301.987 409.44C305.82 407.825 308.411 396.385 310.213 393.025C312.068 389.565 315.807 389.21 316.112 383.89C315.476 382.86 315.255 382.525 314.862 381.41L314.586 380.605Z" fill="#1692E6"/>
<path d="M499.952 240.575C517.937 239.078 529.022 255.377 516.877 269.796C512.567 274.91 504.177 281.638 499.082 286.34L462.557 320.179L406.387 372.505C399.142 379.26 391.872 386.07 384.622 392.765C379.972 397.05 376.232 401.005 369.582 401.15C362.962 401.3 356.147 393.865 351.992 389.52C342.587 379.665 332.703 370.211 323.498 360.261C316.198 352.729 295.749 337.094 302.325 325.625C313.211 306.637 324.517 317.007 335.222 328.017C342.187 335.186 360.422 354.031 368.262 357.148L368.952 357.414C373.387 354.308 390.597 337.564 394.952 333.467L452.792 280.103L477.067 257.48C483.697 251.328 491.202 242.851 499.952 240.575Z" fill="#E18039"/>
<path d="M87.0215 516.395L117.137 516.375C129.924 516.365 143.26 515.465 153.961 523.86C162.346 530.53 165.829 540.665 165.197 551.16C163.92 572.35 151.166 579.875 132.237 581.93L106.053 582.015C106.142 592.45 106.356 603.145 106.092 613.56C99.8585 613.775 93.274 613.69 87 613.745L87.0215 516.395ZM141.107 560.84C143.92 557.2 145.705 553.995 145.566 549.35C145.111 534.045 131.408 533.58 119.663 533.965C115.399 534.105 110.375 534.05 106.062 534.045L106.177 564.805C115.51 564.96 134.544 566.8 141.107 560.84Z" fill="#373E4C"/>
<path d="M575.442 545.08C577.392 544.985 579.947 544.885 581.872 544.965C589.592 545.255 596.887 548.61 602.132 554.285C621.077 575.145 609.467 618.64 576.832 615.025C566.907 613.92 563.447 610.855 557.227 603.675C557.672 608.775 557.447 617.355 557.447 622.75L557.492 642.52C551.792 642.62 546.092 642.62 540.392 642.53C539.947 611.025 540.372 578.525 540.387 546.985C545.007 546.45 552.702 546.7 557.557 546.715L557.482 556.565C563.047 549.515 566.672 546.98 575.442 545.08ZM578.497 599.015C600.697 593.06 597.407 558.735 571.962 561.095C549.217 567.145 552.992 600.62 578.497 599.015Z" fill="#195285"/>
<path d="M334.217 515.185C348.032 513.315 362.992 519.005 373.177 528.2C371.012 532.05 366.562 537.61 363.812 542.095C356.677 537.3 347.217 531.58 338.332 531.97C330.756 533.04 321.788 533.965 322.207 543.91C322.344 546.785 325.09 549.715 327.622 550.83C341.002 556.695 356.792 555.155 368.172 565.845C378.417 575.47 377.557 595.615 367.647 605.41C358.932 614.025 348.142 614.99 336.577 615.075C320.993 614.89 310.061 611.14 298.877 600.335C302.635 596.165 305.951 591.295 309.052 586.615C317.697 592.125 323.153 596.86 333.986 597.895C342.137 598.675 348.922 598.135 355.047 592.115C355.617 590.315 356.087 588.01 356.532 586.135C356.032 584.59 355.252 582.685 354.667 581.135C341.357 568.54 306.228 576.86 303.375 549.34C301.15 527.885 314.188 517.13 334.217 515.185Z" fill="#195285"/>
<path d="M250.798 544.67C270.365 541.86 288.494 555.475 291.243 575.05C293.992 594.63 280.316 612.715 260.731 615.4C241.236 618.075 223.251 604.47 220.514 584.985C217.777 565.5 231.32 547.47 250.798 544.67ZM257.13 599.465C283.35 595.285 274.667 557.395 254.916 560.185C230.011 564.075 234.581 600.135 257.13 599.465Z" fill="#373E4C"/>
<path d="M488.372 544.915C507.782 541.545 526.242 554.57 529.572 573.985C532.907 593.4 519.847 611.835 500.427 615.135C481.057 618.425 462.677 605.41 459.352 586.04C456.027 566.675 469.012 548.275 488.372 544.915ZM497.392 599.38C515.197 596.175 516.777 571.52 503.152 562.27C500.747 560.64 495.677 559.5 492.807 560.17C468.982 563.51 472.317 602.065 497.392 599.38Z" fill="#195285"/>
<path d="M386.232 516.15C391.797 516.245 397.367 516.265 402.932 516.22L403.012 556.42C411.872 543.98 430.132 540.33 442.222 550.835C450.282 557.845 448.967 575.68 448.987 585.79C449.027 595.185 448.997 604.58 448.897 613.975C442.907 613.46 436.947 613.635 430.927 613.665L430.932 588.745C430.997 579.28 433.367 563.215 420.712 561.085C415.912 560.28 411.637 560.82 408.052 564.355C405.872 566.53 404.322 569.265 403.577 572.26C402.572 576.285 402.897 583.925 402.917 588.3C403.032 596.81 403.022 605.325 402.892 613.835C397.702 613.53 390.792 613.66 385.462 613.625C385.457 586.715 385.307 545.56 385.527 517.005C385.762 516.72 385.997 516.435 386.232 516.15Z" fill="#195285"/>
<path d="M209.441 546.135C211.203 545.925 214.167 545.94 216.032 545.89L216.071 563.14C209.283 562.845 201.242 563.015 195.962 567.945C194.091 569.705 192.776 571.97 192.181 574.47C191.165 578.575 191.588 607.455 191.531 613.73C188.891 613.755 175.107 614.13 173.617 613.35L173.6 546.9C179.379 547.03 185.551 546.905 191.362 546.875C191.369 550.225 191.398 553.58 191.449 556.93C197.716 550.035 200.051 547.825 209.441 546.135Z" fill="#373E4C"/>
</svg>
